<svg version="1.2" xmlns="http://www.w3.org/2000/svg" viewBox="0 0 3508 1000" width="512" height="146">
	<defs>
		<clipPath clipPathUnits="userSpaceOnUse" id="cp1">
			<path d="m0 0h3508v2480h-3508z"/>
		</clipPath>
		<linearGradient id="g1" x2="1" gradientUnits="userSpaceOnUse" gradientTransform="matrix(232.334,0,0,53.945,1466.384,167.262)">
			<stop offset="0" stop-color="#ffffff"/>
			<stop offset="1" stop-color="#38c3e7"/>
		</linearGradient>
	</defs>
	<style>
		.s0 { fill: url(#g1) } 
		.s1 { fill: #38c3e7 } 
		.s2 { fill: #ffffff } 
	</style>
	<g id="Page 1" clip-path="url(#cp1)">
		<g id="Group 3">
			<path id="Object 5" class="s0" d="m1466.38 167.26h237.96v357.33h245.95v116.46h-483.91v-1.79c38.28-34.19 62.47-83.86 62.47-138.9v-191.19c0-55.05-24.19-104.71-62.47-138.9zm749.28 0v473.78h-167.32v-473.78zm99.55 0h142.72l232.91 261.6v-261.6h165.27v473.78h-137.44l-238.98-260.16v260.16h-164.48zm634.03 0h158.23v179l165.99-179h210.62l-187.11 178.01 211.03 296.03-210.2-0.25-123.24-179.42-67.09 64.06v115.36h-158.23z"/>
			<path id="Object 6" fill-rule="evenodd" class="s1" d="m1105.11 257.28q111.09 0 222.18 0c42.6 0 77.44 34.85 77.44 77.44v53.85c0 36.2-25.16 66.79-58.85 75.17l60.57 87.83-88.38 0.64-59.44-86.19h-70.02v88.94h-83.5zm83.5 56.87v94.99h99.96c17.97 0 32.67-14.7 32.67-32.67v-29.65c0-17.97-14.7-32.67-32.67-32.67z"/>
			<path id="Object 7" class="s1" d="m801.38 257.28h11.81 71.69 181.21v57.18h-181.21v63.07h143.1v57.18h-143.1v63.07h181.21v57.18h-181.21-71.69-11.81z"/>
			<path id="Object 8" class="s1" d="m579.94 257.28h83.49 103.01v57.18h-103.01v240.5h-83.49v-240.5h-103.01v-57.18z"/>
			<path id="Object 9" class="s1" d="m351.59 257.28h83.49v297.68l-84.87 0.01-128.1-194.34v194.33h-83.5v-297.68h83.45 0.05v0.07l129.48 194.76z"/>
			<path id="Object 10" class="s1" d="m11.56 257.28h83.49v386.01c-34.81-7.03-59.19-22.4-72.36-46.75-11.77-21.77-11.13-40.86-11.13-64.7zm161.38-257.28v35.11h-35.11v-35.11zm23.28 72.31v57.48h-57.47v-57.48zm-95.6-18.14v33.26h-33.26v-33.26zm-3.93 75.32v83.49h-83.49v-83.49z"/>
			<path id="Object 11" class="s2" d="m127.53 168.19h1216.13c80.53 0 146.42 65.89 146.42 146.42v180.31c0 80.53-65.89 146.41-146.42 146.41h-788.87v120.42l-224.84-120.42h-202.42v-44.76h1207.65c58.57 0 106.49-47.92 106.49-106.48v-169.42c0-58.57-47.92-106.48-106.49-106.48h-1207.65z"/>
			<path id="Object 12" class="s2" d="m359.53 703.41c-21.72 38-62.67 63.77-109.35 63.77h-178.85l-151.77 77.8v-89.25c-43.31-19.94-73.56-63.8-73.56-114.39v-162.16c0-68.01 54.67-123.86 122.22-125.79v54.82c-42.65 4.28-76.23 40.55-76.23 84.28v144c0 46.59 38.11 84.7 84.7 84.7h271.06c28.63 0 54.05-14.39 69.41-36.3l0.1-0.15z"/>
			<g id="Group 14">
			</g>
			<path id="operator d" class="s2" aria-label="operator de comunicății electronice
și sisteme de securitate
"  d="m1468.5 716.1q-6 0-9.2 4.3-3.1 4.3-3.1 12.4 0 8.1 3.1 12.5 3.2 4.3 9.2 4.3 5.9 0 9-4.3 3.2-4.4 3.2-12.5 0-8.1-3.2-12.4-3.1-4.3-9-4.3zm0-12.9q14.6 0 22.7 7.9 8.3 7.8 8.3 21.7 0 13.9-8.3 21.8-8.1 7.9-22.7 7.9-14.6 0-22.9-7.9-8.2-7.9-8.2-21.8 0-13.9 8.2-21.7 8.3-7.9 22.9-7.9zm62.2 49.6v29.7h-18v-77.9h18v8.2q3.7-4.9 8.3-7.2 4.5-2.4 10.4-2.4 10.4 0 17.1 8.3 6.7 8.3 6.7 21.3 0 13.1-6.7 21.4-6.7 8.3-17.1 8.3-5.9 0-10.4-2.4-4.6-2.3-8.3-7.3zm12-36.5q-5.8 0-8.9 4.3-3.1 4.2-3.1 12.2 0 8 3.1 12.3 3.1 4.3 8.9 4.3 5.8 0 8.8-4.3 3.1-4.2 3.1-12.3 0-8-3.1-12.3-3-4.2-8.8-4.2zm99.3 16.3v5.2h-42.2q0.7 6.3 4.6 9.5 3.9 3.2 11 3.2 5.7 0 11.6-1.7 6-1.7 12.3-5.1v13.9q-6.4 2.4-12.8 3.7-6.4 1.2-12.8 1.2-15.3 0-23.8-7.8-8.5-7.8-8.5-21.9 0-13.8 8.3-21.7 8.4-7.9 23-7.9 13.3 0 21.3 8 8 8 8 21.4zm-42-6h23.5q0-5.1-3.1-8.2-2.9-3.2-7.8-3.2-5.2 0-8.5 3-3.3 2.9-4.1 8.4zm97.5-23l0.1 16.3q-2.4-1.1-4.8-1.6-2.3-0.5-4.6-0.5-7 0-10.8 4.5-3.7 4.4-3.7 12.7v26h-18v-56.4h18v9.2q3.5-5.5 8-8 4.5-2.6 10.8-2.6 0.9 0 2 0.1 1 0.1 3 0.3zm43.8 32h-9.3q-5.7 0-8.6 1.9-2.8 1.9-2.8 5.7 0 3.4 2.3 5.4 2.3 1.9 6.4 1.9 5.1 0 8.6-3.7 3.4-3.6 3.4-9.1zm18.2-6.8v32.2h-18.2v-8.4q-3.6 5.1-8.1 7.5-4.6 2.3-11.1 2.3-8.7 0-14.2-5.1-5.5-5.1-5.5-13.3 0-9.9 6.8-14.5 6.9-4.7 21.5-4.7h10.6v-1.4q0-4.3-3.3-6.2-3.4-2-10.6-2-5.8 0-10.8 1.1-4.9 1.2-9.2 3.5v-13.7q5.8-1.5 11.6-2.2 5.9-0.7 11.7-0.7 15.3 0 22 6 6.8 6 6.8 19.6zm18.8-40.3h18.1v16h18.6v12.9h-18.6v24q0 3.9 1.5 5.3 1.6 1.4 6.2 1.4h9.3v12.9h-15.5q-10.7 0-15.1-4.5-4.5-4.5-4.5-15.1v-24h-8.9v-12.9h8.9zm74.2 27.6q-6 0-9.2 4.3-3.1 4.3-3.1 12.4 0 8.1 3.1 12.5 3.2 4.3 9.2 4.3 5.9 0 9-4.3 3.2-4.4 3.2-12.5 0-8.1-3.2-12.4-3.1-4.3-9-4.3zm0-12.9q14.6 0 22.7 7.9 8.3 7.8 8.3 21.7 0 13.9-8.3 21.8-8.1 7.8-22.7 7.8-14.6 0-22.9-7.8-8.2-7.9-8.2-21.8 0-13.9 8.2-21.7 8.3-7.9 22.9-7.9zm86 0.4l0.1 16.3q-2.4-1.1-4.8-1.6-2.3-0.5-4.6-0.5-7 0-10.8 4.4-3.7 4.5-3.7 12.8v26h-18v-56.4h18v9.2q3.5-5.5 8-8 4.5-2.6 10.8-2.6 0.9 0 2 0.1 1 0.1 3 0.3zm83.6 9.2v-30.2h18.1v78.4h-18.1v-8.2q-3.8 5-8.3 7.3-4.4 2.3-10.3 2.3-10.5 0-17.2-8.2-6.7-8.3-6.7-21.4 0-13 6.7-21.3 6.7-8.3 17.2-8.3 5.8 0 10.3 2.4 4.5 2.3 8.3 7.2zm-11.9 36.5q5.8 0 8.8-4.2 3.1-4.2 3.1-12.3 0-8-3.1-12.3-3-4.2-8.8-4.2-5.8 0-8.9 4.2-3 4.3-3 12.3 0 8.1 3 12.3 3.1 4.2 8.9 4.2zm103.8-16.7v5.2h-42.2q0.7 6.3 4.6 9.5 3.9 3.2 11 3.2 5.7 0 11.6-1.7 6-1.7 12.3-5.1v13.9q-6.4 2.4-12.8 3.6-6.4 1.2-12.8 1.2-15.3 0-23.8-7.7-8.5-7.8-8.5-21.9 0-13.8 8.3-21.7 8.4-7.9 23-7.9 13.3 0 21.3 8 8 8 8 21.4zm-42-6h23.5q0-5.1-3.1-8.2-2.9-3.2-7.8-3.2-5.2 0-8.5 3-3.3 2.9-4.1 8.4zm137.3-20.3v14.7q-3.7-2.5-7.4-3.7-3.7-1.2-7.7-1.2-7.6 0-11.8 4.4-4.2 4.4-4.2 12.3 0 7.9 4.2 12.4 4.2 4.4 11.8 4.4 4.2 0 8-1.3 3.8-1.3 7.1-3.7v14.7q-4.3 1.6-8.7 2.4-4.3 0.7-8.7 0.7-15.2 0-23.9-7.8-8.6-7.8-8.6-21.8 0-13.9 8.6-21.7 8.7-7.9 23.9-7.9 4.5 0 8.7 0.8 4.4 0.8 8.7 2.3zm42.2 9.8q-6 0-9.2 4.3-3.1 4.3-3.1 12.4 0 8.1 3.1 12.5 3.2 4.3 9.2 4.3 5.9 0 9-4.3 3.2-4.4 3.2-12.5 0-8.1-3.2-12.4-3.1-4.3-9-4.3zm0-12.9q14.6 0 22.7 7.9 8.3 7.8 8.3 21.7 0 13.9-8.3 21.8-8.1 7.8-22.7 7.8-14.6 0-22.9-7.8-8.2-7.9-8.2-21.8 0-13.9 8.2-21.7 8.3-7.9 22.9-7.9zm96.5 10.7q3.4-5.2 8.1-7.9 4.7-2.8 10.4-2.8 9.7 0 14.8 6 5.1 6 5.1 17.4v34.4h-18.2v-29.4q0.1-0.7 0.1-1.4 0-0.7 0-2 0-6-1.7-8.7-1.8-2.7-5.7-2.7-5.2 0-8 4.2-2.8 4.3-2.9 12.3v27.7h-18.1v-29.4q0-9.4-1.6-12.1-1.6-2.7-5.8-2.7-5.2 0-8 4.3-2.8 4.2-2.8 12.1v27.8h-18.1v-56.4h18.1v8.2q3.3-4.8 7.6-7.2 4.3-2.4 9.5-2.4 5.9 0 10.4 2.8 4.4 2.8 6.8 7.9zm54.1 25.1v-34.4h18.1v5.6q0 4.6-0.1 11.5 0 6.9 0 9.3 0 6.8 0.4 9.8 0.3 3 1.2 4.3 1.1 1.8 2.8 2.7 1.8 1 4.2 1 5.6 0 8.8-4.3 3.3-4.4 3.3-12.1v-27.8h18v56.4h-18v-8.2q-4.1 5-8.7 7.3-4.5 2.3-10 2.3-9.8 0-15-5.9-5-6-5-17.5zm131.3-12.4v34.4h-18.1v-5.6-20.7q0-7.3-0.4-10.1-0.3-2.8-1.1-4.1-1.1-1.7-2.9-2.7-1.8-1-4.1-1-5.6 0-8.9 4.4-3.2 4.3-3.2 12v27.8h-18v-56.4h18v8.2q4.1-4.9 8.7-7.2 4.6-2.4 10.1-2.4 9.8 0 14.8 6 5.1 6 5.1 17.4zm16.3 34.4v-56.4h18v56.4zm0-63.7v-14.7h18v14.7zm80.6 9v14.7q-3.6-2.5-7.4-3.7-3.7-1.2-7.6-1.2-7.6 0-11.8 4.4-4.2 4.4-4.2 12.3 0 7.9 4.2 12.4 4.2 4.4 11.8 4.4 4.2 0 8-1.3 3.8-1.3 7-3.7v14.7q-4.2 1.6-8.6 2.4-4.3 0.7-8.7 0.7-15.3 0-23.9-7.8-8.6-7.8-8.6-21.8 0-13.9 8.6-21.7 8.6-7.9 23.9-7.9 4.4 0 8.7 0.8 4.4 0.8 8.6 2.3zm27.6-25.8h7.2q0.6 3.6 3.1 5.4 2.5 1.9 6.7 1.9 4.1 0 6.6-1.9 2.5-1.8 3.1-5.4h7.2q-0.3 7.3-4.7 11.2-4.4 3.8-12.2 3.8-7.9 0-12.3-3.8-4.4-3.9-4.7-11.2zm23.5 55.1h-9.4q-5.6 0-8.5 1.9-2.8 1.9-2.8 5.7 0 3.4 2.3 5.3 2.3 2 6.4 2 5 0 8.5-3.7 3.5-3.6 3.5-9.1zm18.2-6.8v32.2h-18.2v-8.4q-3.6 5.1-8.2 7.5-4.5 2.3-11 2.3-8.8 0-14.3-5.1-5.4-5.1-5.4-13.3 0-9.9 6.8-14.5 6.9-4.7 21.5-4.7h10.6v-1.4q0-4.3-3.4-6.2-3.4-2-10.5-2-5.8 0-10.8 1.1-5 1.2-9.3 3.5v-13.8q5.8-1.4 11.7-2.1 5.8-0.7 11.7-0.7 15.2 0 22 6 6.8 6 6.8 19.6zm21.4 56.8l4.5-15h16.3l-11.1 15zm-3.6-97.1h18v16h18.6v12.9h-18.6v24q0 3.9 1.6 5.3 1.5 1.4 6.2 1.4h9.2v12.9h-15.4q-10.7 0-15.2-4.5-4.4-4.5-4.4-15.1v-24h-9v-12.9h9zm48.3 72.5v-56.5h18v56.5zm0-63.7v-14.7h18.1v14.7zm35 63.7v-56.5h18v56.5zm0-63.7v-14.7h18.1v14.7zm127.3 35.3v5.1h-42.2q0.7 6.4 4.6 9.6 3.9 3.1 11 3.1 5.7 0 11.6-1.6 6-1.7 12.3-5.2v13.9q-6.4 2.5-12.8 3.7-6.4 1.2-12.8 1.2-15.3 0-23.8-7.7-8.5-7.8-8.5-21.9 0-13.8 8.3-21.7 8.4-7.9 23-7.9 13.3 0 21.3 8 8 8 8 21.4zm-42-6h23.4q0-5.1-3-8.2-3-3.2-7.8-3.2-5.2 0-8.5 2.9-3.3 3-4.1 8.5zm55.7 34.4v-78.4h18v78.4zm92.3-28.4v5.1h-42.1q0.6 6.4 4.5 9.6 4 3.1 11 3.1 5.7 0 11.7-1.6 6-1.7 12.2-5.2v13.9q-6.3 2.5-12.7 3.7-6.4 1.2-12.8 1.2-15.4 0-23.9-7.7-8.4-7.8-8.4-21.9 0-13.8 8.3-21.7 8.3-7.9 22.9-7.9 13.3 0 21.3 8 8 8 8 21.4zm-41.9-6h23.4q0-5.1-3-8.2-3-3.2-7.9-3.2-5.2 0-8.5 2.9-3.2 3-4 8.5zm101.2-20.3v14.7q-3.7-2.5-7.4-3.7-3.7-1.2-7.7-1.2-7.5 0-11.8 4.4-4.1 4.4-4.1 12.3 0 7.9 4.1 12.4 4.3 4.3 11.8 4.3 4.3 0 8-1.2 3.9-1.3 7.1-3.8v14.8q-4.2 1.6-8.6 2.4-4.4 0.7-8.7 0.7-15.3 0-23.9-7.8-8.6-7.8-8.6-21.8 0-13.9 8.6-21.8 8.6-7.8 23.9-7.8 4.4 0 8.7 0.8 4.3 0.7 8.6 2.3zm17.1-17.8h18v16h18.6v12.9h-18.6v24q0 3.9 1.6 5.3 1.5 1.4 6.2 1.4h9.2v12.9h-15.4q-10.7 0-15.2-4.5-4.4-4.4-4.4-15.1v-24h-9v-12.9h9zm89.2 15.1v16.3q-2.4-1.1-4.7-1.6-2.3-0.5-4.7-0.5-7 0-10.7 4.5-3.8 4.4-3.8 12.7v26h-18v-56.4h18v9.2q3.5-5.5 8-8 4.5-2.6 10.8-2.6 0.9 0 2 0.1 1 0.1 3.1 0.3zm35.9 12.5q-5.9 0-9.1 4.3-3.1 4.3-3.1 12.4 0 8.1 3.1 12.5 3.2 4.3 9.1 4.3 5.9 0 9.1-4.3 3.1-4.4 3.1-12.5 0-8.1-3.1-12.4-3.2-4.3-9.1-4.3zm0-12.9q14.6 0 22.8 7.9 8.2 7.8 8.2 21.7 0 13.9-8.2 21.8-8.2 7.9-22.8 7.9-14.6 0-22.8-7.9-8.2-7.9-8.2-21.8 0-13.9 8.2-21.7 8.2-7.9 22.8-7.9zm100.9 23.4v34.4h-18.1v-5.6-20.7q0-7.3-0.4-10.1-0.3-2.8-1.1-4.1-1-1.7-2.8-2.7-1.9-1-4.2-1-5.6 0-8.8 4.4-3.3 4.3-3.3 12v27.8h-18v-56.4h18v8.2q4.1-4.9 8.7-7.2 4.6-2.4 10.1-2.4 9.8 0 14.8 6 5.1 6 5.1 17.4zm16.3 34.4v-56.4h18v56.4zm0-63.7v-14.7h18.1v14.7zm81.6 9v14.7q-3.7-2.5-7.4-3.7-3.7-1.2-7.7-1.2-7.6 0-11.8 4.4-4.2 4.4-4.2 12.3 0 7.9 4.2 12.4 4.2 4.4 11.8 4.4 4.2 0 8-1.3 3.8-1.3 7.1-3.7v14.7q-4.3 1.6-8.7 2.4-4.3 0.8-8.7 0.8-15.2 0-23.9-7.9-8.6-7.8-8.6-21.8 0-13.9 8.6-21.7 8.7-7.9 23.9-7.9 4.5 0 8.7 0.8 4.4 0.8 8.7 2.3zm71.7 26.3v5.2h-42.2q0.7 6.3 4.6 9.5 3.9 3.2 11 3.2 5.7 0 11.6-1.7 6-1.7 12.3-5.1v13.9q-6.4 2.4-12.8 3.6-6.4 1.3-12.8 1.3-15.3 0-23.8-7.8-8.5-7.8-8.5-21.9 0-13.8 8.3-21.7 8.4-7.9 23-7.9 13.3 0 21.3 8 8 8 8 21.4zm-42-6h23.5q0-5.1-3.1-8.2-2.9-3.2-7.8-3.2-5.2 0-8.5 3-3.3 2.9-4.1 8.4zm-1327.1 183l4.5-15h16.4l-11.2 15zm32.8-79.3v13.7q-5.8-2.4-11.2-3.6-5.4-1.2-10.1-1.2-5.2 0-7.7 1.3-2.5 1.3-2.5 3.9 0 2.2 1.9 3.4 1.9 1.1 6.8 1.7l3.2 0.4q13.8 1.8 18.6 5.8 4.8 4.1 4.8 12.7 0 9-6.6 13.5-6.7 4.6-19.9 4.6-5.6 0-11.6-0.9-5.9-0.9-12.2-2.7v-13.7q5.4 2.6 11 4 5.7 1.3 11.5 1.3 5.3 0 8-1.5 2.7-1.5 2.7-4.3 0-2.4-1.9-3.6-1.8-1.2-7.3-1.9l-3.2-0.4q-12-1.5-16.8-5.6-4.9-4-4.9-12.4 0-8.9 6.2-13.3 6.1-4.3 18.8-4.3 5 0 10.5 0.8 5.5 0.7 11.9 2.3zm16.9 54.7v-56.4h18.1v56.4zm0-63.7v-14.7h18v14.7zm116.1 9v13.7q-5.8-2.4-11.2-3.6-5.4-1.2-10.2-1.2-5.1 0-7.6 1.3-2.5 1.3-2.5 3.9 0 2.2 1.9 3.4 1.9 1.1 6.8 1.7l3.1 0.4q13.9 1.8 18.7 5.8 4.8 4.1 4.8 12.7 0 9-6.7 13.5-6.6 4.6-19.8 4.6-5.6 0-11.6-0.9-6-0.9-12.3-2.7v-13.7q5.4 2.6 11.1 4 5.7 1.3 11.5 1.3 5.3 0 8-1.5 2.6-1.5 2.6-4.3 0-2.4-1.8-3.6-1.8-1.2-7.3-1.9l-3.2-0.4q-12-1.5-16.9-5.6-4.8-4-4.8-12.4 0-8.9 6.1-13.3 6.2-4.3 18.9-4.3 5 0 10.5 0.8 5.4 0.7 11.9 2.3zm16.9 54.7v-56.4h18v56.4zm0-63.7v-14.7h18.1v14.7zm79.1 9v13.7q-5.8-2.4-11.2-3.6-5.4-1.2-10.2-1.2-5.1 0-7.7 1.3-2.4 1.3-2.4 3.9 0 2.2 1.8 3.4 2 1.1 6.8 1.7l3.2 0.4q13.9 1.8 18.7 5.8 4.7 4.1 4.7 12.7 0 9-6.6 13.5-6.7 4.6-19.9 4.6-5.5 0-11.5-0.9-6-0.9-12.3-2.7v-13.7q5.4 2.6 11.1 4 5.6 1.3 11.5 1.3 5.3 0 7.9-1.5 2.7-1.5 2.7-4.3 0-2.4-1.8-3.6-1.9-1.2-7.4-1.9l-3.1-0.4q-12.1-1.5-16.9-5.6-4.8-4-4.8-12.4 0-8.9 6.1-13.3 6.2-4.3 18.8-4.3 5 0 10.5 0.8 5.5 0.7 12 2.3zm19.5-17.8h18.1v16.1h18.6v12.9h-18.6v23.9q0 3.9 1.5 5.3 1.6 1.4 6.2 1.4h9.3v12.9h-15.5q-10.6 0-15.1-4.4-4.5-4.5-4.5-15.2v-23.9h-8.9v-12.9h8.9zm103.7 44.1v5.1h-42.2q0.7 6.3 4.6 9.5 4 3.2 11 3.2 5.7 0 11.6-1.7 6-1.7 12.3-5.1v13.9q-6.4 2.4-12.8 3.7-6.4 1.2-12.8 1.2-15.3 0-23.8-7.8-8.4-7.8-8.4-21.8 0-13.9 8.3-21.8 8.3-7.9 22.9-7.9 13.3 0 21.3 8 8 8.1 8 21.5zm-42-6h23.5q0-5.2-3.1-8.3-2.9-3.2-7.8-3.2-5.2 0-8.5 3-3.2 2.9-4.1 8.5zm108-12.7q3.4-5.3 8.1-8 4.7-2.8 10.4-2.8 9.7 0 14.8 6 5.1 6 5.1 17.5v34.3h-18.2v-29.4q0.1-0.7 0.1-1.4 0-0.7 0-2 0-6-1.7-8.6-1.8-2.8-5.7-2.8-5.2 0-8 4.3-2.8 4.2-2.9 12.2v27.7h-18.1v-29.4q0-9.4-1.6-12-1.6-2.8-5.7-2.8-5.2 0-8.1 4.3-2.8 4.2-2.8 12.2v27.7h-18.1v-56.4h18.1v8.3q3.3-4.8 7.6-7.3 4.4-2.4 9.6-2.4 5.8 0 10.3 2.9 4.5 2.8 6.8 7.9zm112 18.7v5.1h-42.2q0.7 6.3 4.6 9.5 4 3.2 11 3.2 5.7 0 11.6-1.7 6-1.7 12.3-5.1v13.9q-6.4 2.4-12.8 3.7-6.4 1.2-12.8 1.2-15.3 0-23.8-7.8-8.4-7.8-8.4-21.8 0-13.9 8.3-21.8 8.3-7.9 22.9-7.9 13.3 0 21.3 8 8 8.1 8 21.5zm-42-6h23.5q0-5.2-3.1-8.3-2.9-3.2-7.8-3.2-5.2 0-8.5 3-3.2 2.9-4.1 8.5zm130.1-13.8v-30.3h18.1v78.4h-18.1v-8.1q-3.8 4.9-8.2 7.3-4.5 2.3-10.4 2.3-10.4 0-17.1-8.3-6.7-8.3-6.7-21.3 0-13.1 6.7-21.4 6.7-8.3 17.1-8.3 5.8 0 10.3 2.4 4.5 2.3 8.3 7.3zm-11.9 36.5q5.8 0 8.8-4.3 3.1-4.2 3.1-12.2 0-8.1-3.1-12.3-3-4.3-8.8-4.3-5.8 0-8.8 4.3-3.1 4.2-3.1 12.3 0 8 3.1 12.2 3 4.3 8.8 4.3zm102.8-16.7v5.1h-42.2q0.7 6.3 4.6 9.5 4 3.2 11 3.2 5.7 0 11.6-1.7 6-1.7 12.3-5.1v13.9q-6.4 2.4-12.8 3.7-6.4 1.2-12.8 1.2-15.3 0-23.8-7.8-8.4-7.8-8.4-21.8 0-13.9 8.3-21.8 8.3-7.9 22.9-7.9 13.3 0 21.3 8 8 8.1 8 21.5zm-42-6h23.5q0-5.2-3.1-8.3-2.9-3.2-7.8-3.2-5.2 0-8.5 3-3.2 2.9-4.1 8.5zm135.8-20.3v13.7q-5.8-2.5-11.2-3.7-5.4-1.2-10.2-1.2-5.1 0-7.7 1.3-2.4 1.3-2.4 4 0 2.1 1.8 3.3 2 1.1 6.8 1.7l3.2 0.5q13.9 1.7 18.7 5.7 4.7 4.1 4.7 12.7 0 9-6.6 13.5-6.7 4.6-19.9 4.6-5.5 0-11.5-0.9-6-0.9-12.3-2.6v-13.8q5.4 2.7 11.1 4 5.6 1.3 11.5 1.3 5.3 0 7.9-1.5 2.7-1.4 2.7-4.3 0-2.4-1.8-3.6-1.9-1.2-7.4-1.8l-3.1-0.5q-12.1-1.5-16.9-5.5-4.8-4.1-4.8-12.4 0-9 6.1-13.3 6.2-4.4 18.8-4.4 5 0 10.5 0.8 5.5 0.7 12 2.4zm74.2 26.3v5.1h-42.2q0.7 6.3 4.6 9.5 4 3.2 11 3.2 5.7 0 11.6-1.7 6-1.7 12.3-5.1v13.9q-6.4 2.4-12.8 3.7-6.4 1.2-12.8 1.2-15.3 0-23.8-7.8-8.4-7.8-8.4-21.8 0-13.9 8.3-21.8 8.3-7.9 22.9-7.9 13.3 0 21.3 8 8 8.1 8 21.5zm-42-6h23.5q0-5.2-3.1-8.3-2.9-3.2-7.8-3.2-5.2 0-8.5 3-3.2 2.9-4.1 8.5zm101.3-20.3v14.7q-3.7-2.6-7.4-3.8-3.7-1.2-7.7-1.2-7.5 0-11.8 4.5-4.2 4.3-4.2 12.3 0 7.9 4.2 12.3 4.3 4.4 11.8 4.4 4.2 0 8-1.3 3.9-1.2 7.1-3.7v14.8q-4.3 1.5-8.6 2.3-4.4 0.8-8.8 0.8-15.2 0-23.8-7.8-8.6-7.9-8.6-21.8 0-14 8.6-21.8 8.6-7.9 23.8-7.9 4.5 0 8.8 0.8 4.3 0.8 8.6 2.4zm14.8 32.6v-34.4h18.1v5.6q0 4.6 0 11.6-0.1 6.9-0.1 9.2 0 6.8 0.4 9.8 0.3 3 1.2 4.3 1.1 1.8 2.9 2.8 1.8 0.9 4.1 0.9 5.6 0 8.8-4.3 3.3-4.3 3.3-12.1v-27.8h18v56.4h-18v-8.1q-4.1 4.9-8.7 7.3-4.5 2.3-10 2.3-9.8 0-14.9-6-5.1-6-5.1-17.5zm115.5-35.4v16.4q-2.4-1.2-4.7-1.7-2.4-0.5-4.7-0.5-7 0-10.8 4.5-3.7 4.4-3.7 12.7v26h-18v-56.4h18v9.3q3.5-5.6 8-8.1 4.5-2.6 10.8-2.6 0.9 0 2 0.1 1 0.1 3.1 0.3zm9.1 57.4v-56.4h18v56.4zm0-63.7v-14.7h18.1v14.7zm37.6-8.7h18.1v16h18.5v12.9h-18.5v23.9q0 3.9 1.5 5.4 1.6 1.3 6.2 1.3h9.3v12.9h-15.5q-10.7 0-15.1-4.4-4.5-4.5-4.5-15.2v-23.9h-8.9v-12.9h8.9zm82 47h-9.4q-5.6 0-8.5 2-2.8 1.9-2.8 5.6 0 3.4 2.3 5.4 2.3 1.9 6.4 1.9 5.1 0 8.5-3.6 3.5-3.7 3.5-9.2zm18.2-6.8v32.2h-18.2v-8.4q-3.6 5.2-8.1 7.5-4.6 2.4-11.1 2.4-8.7 0-14.2-5.1-5.5-5.2-5.5-13.3 0-10 6.8-14.6 6.9-4.6 21.5-4.6h10.6v-1.4q0-4.3-3.4-6.3-3.3-2-10.5-2-5.8 0-10.8 1.2-5 1.1-9.2 3.4v-13.7q5.8-1.4 11.6-2.1 5.8-0.8 11.7-0.8 15.3 0 22 6.1 6.8 6 6.8 19.5zm17.8-40.2h18.1v16h18.5v12.9h-18.5v23.9q0 3.9 1.5 5.3 1.6 1.4 6.2 1.4h9.3v12.9h-15.5q-10.7 0-15.1-4.4-4.5-4.5-4.5-15.2v-23.9h-8.9v-12.9h8.9zm104.7 44.1v5.1h-42.2q0.7 6.3 4.6 9.5 3.9 3.2 11 3.2 5.7 0 11.6-1.7 6-1.7 12.3-5.1v13.9q-6.4 2.4-12.8 3.7-6.4 1.2-12.8 1.2-15.3 0-23.8-7.8-8.5-7.8-8.5-21.8 0-13.8 8.3-21.8 8.4-7.9 23-7.9 13.3 0 21.3 8 8 8.1 8 21.5zm-42-6h23.4q0-5.2-3-8.3-3-3.2-7.8-3.2-5.2 0-8.5 3-3.3 2.9-4.1 8.5z"/>
		</g>
	</g>
</svg>