<svg version="1.2" xmlns="http://www.w3.org/2000/svg" viewBox="0 0 3508 2480" width="3508" height="2480">
	<defs>
		<clipPath clipPathUnits="userSpaceOnUse" id="cp1">
			<path d="m0 0h3508v2480h-3508z"/>
		</clipPath>
		<linearGradient id="g1" x2="1" gradientUnits="userSpaceOnUse" gradientTransform="matrix(148.614,0,0,34.506,1641.023,933.003)">
			<stop offset="0" stop-color="#ffffff"/>
			<stop offset="1" stop-color="#38c3e7"/>
		</linearGradient>
	</defs>
	<style>
		tspan { white-space:pre } 
		.s0 { fill: url(#g1) } 
		.s1 { fill: #38c3e7 } 
		.s2 { fill: #ffffff } 
		.t3 { font-size: 66px;fill: #ffffff;font-weight: 800;font-family: "Arial" } 
	</style>
	<g id="Page 1" clip-path="url(#cp1)">
		<g id="Group 3">
			<path id="Object 5" class="s0" d="m1641.02 933h152.21v228.57h157.33v74.49h-309.54v-1.14c24.48-21.87 39.96-53.64 39.96-88.85v-122.3c0-35.21-15.48-66.97-39.96-88.84zm372.25 0h107.03v303.06h-107.03zm170.71 0h91.29l148.98 167.33v-167.33h105.72v303.06h-87.92l-152.86-166.42v166.42h-105.21zm405.56 0h101.21v114.49l106.18-114.49h134.72l-119.68 113.85 134.99 189.37-134.46-0.16-78.83-114.77-42.92 40.98v73.79h-101.21z"/>
			<path id="Object 6" fill-rule="evenodd" class="s1" d="m1409.93 990.58q71.06 0 142.12 0c27.25 0 49.54 22.29 49.54 49.54v34.45c0 23.15-16.1 42.72-37.65 48.08l38.74 56.18-56.53 0.4-38.02-55.13h-44.79v56.89h-53.41zm53.41 36.38v60.77h63.94c11.5 0 20.9-9.41 20.9-20.9v-18.97c0-11.49-9.4-20.9-20.9-20.9z"/>
			<path id="Object 7" class="s1" d="m1215.65 990.58h7.55 45.86 115.91v36.58h-115.91v40.34h91.53v36.58h-91.53v40.34h115.91v36.57h-115.91-45.86-7.55z"/>
			<path id="Object 8" class="s1" d="m1074 990.58h53.41 65.89v36.58h-65.89v153.83h-53.41v-153.83h-65.89v-36.58z"/>
			<path id="Object 9" class="s1" d="m927.94 990.58h53.4v190.41l-54.28 0.01-81.95-124.31v124.3h-53.4v-190.41h53.37 0.03v0.05l82.83 124.58z"/>
			<path id="Object 10" class="s1" d="m710.43 990.58h53.41v246.92c-22.26-4.5-37.86-14.33-46.28-29.91-7.54-13.93-7.13-26.14-7.13-41.38zm80.77-164.57h22.46v22.45h-22.46zm0.59 46.26h36.77v36.76h-36.77zm-45.66-11.6h21.27v21.27h-21.27zm-34.65 48.18h53.41v53.41h-53.41z"/>
			<path id="Object 11" class="s2" d="m784.61 933.6h777.91c51.51 0 93.66 42.14 93.66 93.65v115.34c0 51.51-42.15 93.66-93.66 93.66h-504.61v77.02l-143.81-77.02h-129.49v-28.64h772.49c37.46 0 68.11-30.65 68.11-68.11v-108.37c0-37.46-30.65-68.11-68.11-68.11h-772.49z"/>
			<path id="Object 12" class="s2" d="m933.02 1275.95c-13.89 24.31-40.09 40.79-69.95 40.79h-114.4l-97.08 49.77v-57.09c-27.7-12.76-47.06-40.81-47.06-73.17v-103.73c0-43.5 34.97-79.22 78.18-80.46v35.06c-27.28 2.75-48.76 25.94-48.76 53.92v92.11c0 29.8 24.38 54.18 54.18 54.18h173.39c18.31 0 34.57-9.21 44.39-23.22l0.07-0.1z"/>
			<g id="Group 14">
			</g>
			<text id="operator d" style="transform: matrix(1,0,0,1,2948.736,1312.989)" >
				<tspan x="-1329.3" y="0" class="t3">operator de comunicății electronice
</tspan>
				<tspan x="-891.6" y="79.2" class="t3">și sisteme de securitate
</tspan>
			</text>
		</g>
	</g>
</svg>